<svg width="263.6800170898438px" height="324.88001708984376px" xmlns="http://www.w3.org/2000/svg" viewBox="118.15999145507811 -87.44000854492188 263.6800170898438 324.88001708984376" style="background: none;" preserveAspectRatio="xMidYMid"><defs><filter id="editing-extrusion" x="-100%" y="-100%" width="300%" height="300%"><feFlood result="color1" flood-color="#e88432"></feFlood><feConvolveMatrix order="11,11" divisor="1" kernelMatrix="1 0 0 0 0 0 0 0 0 0 0 0 1 0 0 0 0 0 0 0 0 0 0 0 1 0 0 0 0 0 0 0 0 0 0 0 1 0 0 0 0 0 0 0 0 0 0 0 1 0 0 0 0 0 0 0 0 0 0 0 1 0 0 0 0 0 0 0 0 0 0 0 1 0 0 0 0 0 0 0 0 0 0 0 1 0 0 0 0 0 0 0 0 0 0 0 1 0 0 0 0 0 0 0 0 0 0 0 1 0 0 0 0 0 0 0 0 0 0 0 1" in="SourceAlpha" result="extrude"></feConvolveMatrix><feComposite in="color1" in2="extrude" result="comp-extrude" operator="in"></feComposite><feOffset dx="5.5" dy="5.5" in="comp-extrude" result="offset-extrude"></feOffset><feMerge><feMergeNode in="offset-extrude"></feMergeNode><feMergeNode in="SourceGraphic"></feMergeNode></feMerge></filter></defs><g filter="url(#editing-extrusion)"><g transform="translate(162.63499450683594, 138.03999710083008)"><path d="M68.70-22.34L68.70-22.34L68.70-22.34Q71.45-25.25 73.13-25.25L73.13-25.25L73.13-25.25Q74.82-25.25 74.82-23.49L74.82-23.49L74.82-23.49Q74.82-21.73 73.59-20.50L73.59-20.50L73.59-20.50Q65.94-10.25 53.17-1.91L53.17-1.91L53.17-1.91Q40.39 6.43 27.16 6.43L27.16 6.43L27.16 6.43Q13.92 6.43 6.96-2.07L6.96-2.07L6.96-2.07Q0-10.56 0-24.63L0-24.63L0-24.63Q0-38.71 6.43-55.31L6.43-55.31L6.43-55.31Q12.85-71.91 23.18-86.22L23.18-86.22L23.18-86.22Q33.51-100.52 48.27-110.08L48.27-110.08L48.27-110.08Q63.04-119.65 78.18-119.65L78.18-119.65L78.18-119.65Q91.34-119.65 91.34-107.56L91.34-107.56L91.34-107.56Q91.34-98.69 84.76-86.90L84.76-86.90L84.76-86.90Q78.18-75.12 68.08-66.48L68.08-66.48L68.08-66.48Q57.99-57.83 49.42-57.83L49.42-57.83L49.42-57.83Q44.83-57.83 44.83-62.73L44.83-62.73L44.83-62.73Q44.83-66.40 49.11-71.91L49.11-71.91L49.11-71.91Q53.40-77.42 57.07-77.42L57.07-77.42L57.07-77.42Q59.06-77.42 58.60-73.90L58.60-73.90L58.60-73.90Q58.14-70.38 61.96-70.38L61.96-70.38L61.96-70.38Q67.47-70.38 72.29-78.80L72.29-78.80L72.29-78.80Q77.11-87.21 77.11-94.55L77.11-94.55L77.11-94.55Q77.11-109.70 64.57-109.70L64.57-109.70L64.57-109.70Q53.09-109.70 42.46-99.30L42.46-99.30L42.46-99.30Q31.82-88.89 25.63-73.98L25.63-73.98L25.63-73.98Q19.43-59.06 19.43-45.29L19.43-45.29L19.43-45.29Q19.43-31.52 26.09-23.18L26.09-23.18L26.09-23.18Q32.74-14.84 46.82-14.84L46.82-14.84L46.82-14.84Q52.78-14.84 58.29-16.83L58.29-16.83L58.29-16.83Q65.94-19.43 68.70-22.34ZM85.37-16.98L85.37-16.98Q85.37-19.43 90.65-22.26L90.65-22.26L90.65-22.26Q95.93-25.09 100.44-25.09L100.44-25.09L100.44-25.09Q104.96-25.09 110.08-23.03L110.08-23.03L110.08-23.03Q115.21-20.96 118.04-20.96L118.04-20.96L118.04-20.96Q120.87-20.96 122.40-21.27L122.40-21.27L122.40-21.27Q124.24-21.27 124.39-20.04L124.39-20.04L124.39-20.04Q124.39-17.59 119.11-14.84L119.11-14.84L119.11-14.84Q113.83-12.09 109.24-12.09L109.24-12.09L109.24-12.09Q104.65-12.09 99.68-14.08L99.68-14.08L99.68-14.08Q94.71-16.07 91.72-16.07L91.72-16.07L91.72-16.07Q88.74-16.07 87.36-15.76L87.36-15.76L87.36-15.76Q85.53-15.76 85.37-16.98L85.37-16.98ZM135.71-16.98L135.71-16.98Q135.71-19.43 140.99-22.26L140.99-22.26L140.99-22.26Q146.27-25.09 150.78-25.09L150.78-25.09L150.78-25.09Q155.29-25.09 160.42-23.03L160.42-23.03L160.42-23.03Q165.55-20.96 168.38-20.96L168.38-20.96L168.38-20.96Q171.21-20.96 172.74-21.27L172.74-21.27L172.74-21.27Q174.57-21.27 174.73-20.04L174.73-20.04L174.73-20.04Q174.73-17.59 169.45-14.84L169.45-14.84L169.45-14.84Q164.17-12.09 159.58-12.09L159.58-12.09L159.58-12.09Q154.99-12.09 150.02-14.08L150.02-14.08L150.02-14.08Q145.04-16.07 142.06-16.07L142.06-16.07L142.06-16.07Q139.08-16.07 137.70-15.76L137.70-15.76L137.70-15.76Q135.86-15.76 135.71-16.98L135.71-16.98Z" fill="#d34c31"></path></g></g><style>text {
  font-size: 64px;
  font-family: Arial Black;
  dominant-baseline: central;
  text-anchor: middle;
}</style></svg>