<?xml version="1.0" encoding="iso-8859-1"?>
<!-- Uploaded to: SVG Repo, www.svgrepo.com, Generator: SVG Repo Mixer Tools -->
<svg fill="#000000" height="800px" width="800px" version="1.1" id="Layer_1" xmlns="http://www.w3.org/2000/svg" xmlns:xlink="http://www.w3.org/1999/xlink" 
	 viewBox="0 0 512 512" xml:space="preserve">
<g>
	<g>
		<path d="M501.801,56.44H10.199C4.566,56.44,0,61.006,0,66.639v311.382c0,5.633,4.566,10.199,10.199,10.199h184.606v46.942h-55.076
			c-5.633,0-10.199,4.566-10.199,10.199c0,5.633,4.566,10.199,10.199,10.199h232.542c5.633,0,10.199-4.566,10.199-10.199
			c0-5.633-4.566-10.199-10.199-10.199h-55.076V388.22h184.606c5.633,0,10.199-4.566,10.199-10.199V66.639
			C512,61.006,507.434,56.44,501.801,56.44z M296.797,435.162h-81.594V388.22h81.594V435.162z M491.602,367.82H20.398V76.837
			h471.203V367.82z"/>
	</g>
</g>
<g>
	<g>
		<path d="M468.143,89.739H43.857c-5.633,0-10.199,4.566-10.199,10.199v244.781c0,5.633,4.566,10.199,10.199,10.199h424.287
			c5.633,0,10.199-4.566,10.199-10.199V99.938C478.343,94.305,473.776,89.739,468.143,89.739z M457.944,334.52H54.056V110.138
			h403.888V334.52z"/>
	</g>
</g>
<g>
	<g>
		<path d="M75.474,238.648c-5.633,0-10.199,4.566-10.199,10.199v65.275c0,5.633,4.566,10.199,10.199,10.199
			c5.633,0,10.199-4.566,10.199-10.199v-65.275C85.673,243.214,81.107,238.648,75.474,238.648z"/>
	</g>
</g>
<g>
	<g>
		<path d="M75.474,206.138c-5.633,0-10.199,4.566-10.199,10.199v3.825c0,5.633,4.566,10.199,10.199,10.199
			c5.633,0,10.199-4.566,10.199-10.199v-3.825C85.673,210.704,81.107,206.138,75.474,206.138z"/>
	</g>
</g>
</svg>